<svg xmlns="http://www.w3.org/2000/svg" xmlns:xlink="http://www.w3.org/1999/xlink" width="1280" height="500" viewBox="0 0 1280 500"><defs><style>.a{fill:#ffe166;}.b{clip-path:url(#a);}.c{fill:#0c678f;}.d,.e,.i{fill:none;}.d{stroke:#1ba6f0;}.d,.e{stroke-width:2px;}.e{stroke:#09445f;}.f{fill:#00a6f0;}.g{fill:#09445f;}.h{stroke:none;}</style><clipPath id="a"><rect class="a" width="1280" height="500" transform="translate(180 8883)"/></clipPath></defs><g transform="translate(1489 -8235)"><g class="b" transform="translate(-1669 -648)"><rect class="c" width="1280" height="500" transform="translate(180 8883)"/><g class="d" transform="translate(1419.5 8817.5) rotate(90)"><rect class="h" width="116" height="23" rx="11.5"/><rect class="i" x="1" y="1" width="114" height="21" rx="10.5"/></g><g class="d" transform="translate(839 8974)"><rect class="h" width="60" height="23" rx="11.5"/><rect class="i" x="1" y="1" width="58" height="21" rx="10.5"/></g><g class="e" transform="translate(1123 8858)"><rect class="h" width="186" height="50" rx="25"/><rect class="i" x="1" y="1" width="184" height="48" rx="24"/></g><path class="f" d="M-2520.254,326.765a5.676,5.676,0,0,1,4.961,2.864l36.474,63.177a5.727,5.727,0,0,1-4.959,8.591h-72.95a5.728,5.728,0,0,1-4.96-8.591l36.475-63.177a5.674,5.674,0,0,1,4.96-2.864m0-17.184a23,23,0,0,0-11.121,2.87,22.914,22.914,0,0,0-8.721,8.586l-36.475,63.176a22.9,22.9,0,0,0-3.074,11.846,23,23,0,0,0,3.074,11.066,23,23,0,0,0,8.046,8.2,22.9,22.9,0,0,0,11.8,3.26h72.95a22.9,22.9,0,0,0,11.8-3.26,22.991,22.991,0,0,0,8.046-8.2,23,23,0,0,0,3.073-11.066,22.886,22.886,0,0,0-3.074-11.846l-36.475-63.176a22.907,22.907,0,0,0-8.721-8.586,23,23,0,0,0-11.121-2.87Z" transform="translate(3049.648 9007.949)"/><g transform="translate(398.78 9013.601) rotate(180)"><path class="f" d="M-973.409,489.378a50.3,50.3,0,0,1-35.774-14.9,50.3,50.3,0,0,1-14.9-35.774,8.927,8.927,0,0,1,8.927-8.927,8.927,8.927,0,0,1,8.927,8.927,32.565,32.565,0,0,0,9.671,23.149,32.566,32.566,0,0,0,23.149,9.671,32.566,32.566,0,0,0,23.149-9.671A32.565,32.565,0,0,0-940.59,438.7a8.927,8.927,0,0,1,8.927-8.927,8.927,8.927,0,0,1,8.927,8.927,50.3,50.3,0,0,1-14.9,35.774A50.3,50.3,0,0,1-973.409,489.378Z" transform="translate(1024.083 -429.777)"/></g><g transform="translate(103 8859)"><path class="f" d="M-3599.273,730.432a4.835,4.835,0,0,1-3.438-1.432,4.834,4.834,0,0,1-1.432-3.438.858.858,0,0,1,.858-.858.858.858,0,0,1,.858.858,3.13,3.13,0,0,0,.929,2.225,3.13,3.13,0,0,0,2.225.929,3.13,3.13,0,0,0,2.225-.929,3.13,3.13,0,0,0,.929-2.225,4.834,4.834,0,0,1,1.432-3.438,4.834,4.834,0,0,1,3.438-1.432,4.834,4.834,0,0,1,3.438,1.432,4.834,4.834,0,0,1,1.432,3.438.858.858,0,0,1-.858.858.858.858,0,0,1-.858-.858,3.13,3.13,0,0,0-.929-2.225,3.13,3.13,0,0,0-2.225-.929,3.13,3.13,0,0,0-2.225.929,3.129,3.129,0,0,0-.929,2.225,4.834,4.834,0,0,1-1.432,3.438A4.834,4.834,0,0,1-3599.273,730.432Z" transform="translate(3911.379 -276.503)"/><path class="f" d="M-3599.273,730.432a4.835,4.835,0,0,1-3.438-1.432,4.834,4.834,0,0,1-1.432-3.438.858.858,0,0,1,.858-.858.858.858,0,0,1,.858.858,3.13,3.13,0,0,0,.929,2.225,3.13,3.13,0,0,0,2.225.929,3.13,3.13,0,0,0,2.225-.929,3.13,3.13,0,0,0,.929-2.225,4.834,4.834,0,0,1,1.432-3.438,4.834,4.834,0,0,1,3.438-1.432,4.834,4.834,0,0,1,3.438,1.432,4.834,4.834,0,0,1,1.432,3.438.858.858,0,0,1-.858.858.858.858,0,0,1-.858-.858,3.13,3.13,0,0,0-.929-2.225,3.13,3.13,0,0,0-2.225-.929,3.13,3.13,0,0,0-2.225.929,3.129,3.129,0,0,0-.929,2.225,4.834,4.834,0,0,1-1.432,3.438A4.834,4.834,0,0,1-3599.273,730.432Z" transform="translate(3927.379 -276.503)"/><path class="f" d="M-3599.273,730.432a4.835,4.835,0,0,1-3.438-1.432,4.834,4.834,0,0,1-1.432-3.438.858.858,0,0,1,.858-.858.858.858,0,0,1,.858.858,3.13,3.13,0,0,0,.929,2.225,3.13,3.13,0,0,0,2.225.929,3.13,3.13,0,0,0,2.225-.929,3.13,3.13,0,0,0,.929-2.225,4.834,4.834,0,0,1,1.432-3.438,4.834,4.834,0,0,1,3.438-1.432,4.834,4.834,0,0,1,3.438,1.432,4.834,4.834,0,0,1,1.432,3.438.858.858,0,0,1-.858.858.858.858,0,0,1-.858-.858,3.13,3.13,0,0,0-.929-2.225,3.13,3.13,0,0,0-2.225-.929,3.13,3.13,0,0,0-2.225.929,3.129,3.129,0,0,0-.929,2.225,4.834,4.834,0,0,1-1.432,3.438A4.834,4.834,0,0,1-3599.273,730.432Z" transform="translate(3943.379 -276.503)"/></g><path class="f" d="M-2525.494,393.295a5.173,5.173,0,0,0,4.522-2.611l33.257-57.6a5.222,5.222,0,0,0-4.522-7.833h-66.514a5.222,5.222,0,0,0-4.522,7.833l33.256,57.6a5.174,5.174,0,0,0,4.522,2.611m0,15.667a20.965,20.965,0,0,1-10.139-2.617,20.88,20.88,0,0,1-7.952-7.828l-33.256-57.6a20.886,20.886,0,0,1-2.8-10.8,20.964,20.964,0,0,1,2.8-10.089,20.961,20.961,0,0,1,7.336-7.472,20.879,20.879,0,0,1,10.755-2.973h66.514a20.88,20.88,0,0,1,10.754,2.973,20.962,20.962,0,0,1,7.336,7.472,20.968,20.968,0,0,1,2.8,10.089,20.876,20.876,0,0,1-2.8,10.8l-33.256,57.6a20.88,20.88,0,0,1-7.952,7.828,20.964,20.964,0,0,1-10.139,2.617Z" transform="translate(-1428.763 9361.962) rotate(180)"/><path class="f" d="M-3346.49,295.332a.731.731,0,0,1,.73.73v6.044a.731.731,0,0,1-.73.73h-6.044a.731.731,0,0,1-.73-.73v-6.044a.731.731,0,0,1,.73-.73h6.044m0-2.248h-6.044a2.981,2.981,0,0,0-2.978,2.978v6.044a2.981,2.981,0,0,0,2.978,2.978h6.044a2.981,2.981,0,0,0,2.978-2.978v-6.044a2.981,2.981,0,0,0-2.978-2.978Z" transform="translate(3629.512 8861.916)"/><path class="f" d="M-3346.49,295.332a.731.731,0,0,1,.73.73v6.044a.731.731,0,0,1-.73.73h-6.044a.731.731,0,0,1-.73-.73v-6.044a.731.731,0,0,1,.73-.73h6.044m0-2.248h-6.044a2.981,2.981,0,0,0-2.978,2.978v6.044a2.981,2.981,0,0,0,2.978,2.978h6.044a2.981,2.981,0,0,0,2.978-2.978v-6.044a2.981,2.981,0,0,0-2.978-2.978Z" transform="translate(3677.512 9046.916)"/><g transform="translate(162 8543)"><path class="f" d="M-3599.273,730.432a4.835,4.835,0,0,1-3.438-1.432,4.834,4.834,0,0,1-1.432-3.438.858.858,0,0,1,.858-.858.858.858,0,0,1,.858.858,3.13,3.13,0,0,0,.929,2.225,3.13,3.13,0,0,0,2.225.929,3.13,3.13,0,0,0,2.225-.929,3.13,3.13,0,0,0,.929-2.225,4.834,4.834,0,0,1,1.432-3.438,4.834,4.834,0,0,1,3.438-1.432,4.834,4.834,0,0,1,3.438,1.432,4.834,4.834,0,0,1,1.432,3.438.858.858,0,0,1-.858.858.858.858,0,0,1-.858-.858,3.13,3.13,0,0,0-.929-2.225,3.13,3.13,0,0,0-2.225-.929,3.13,3.13,0,0,0-2.225.929,3.129,3.129,0,0,0-.929,2.225,4.834,4.834,0,0,1-1.432,3.438A4.834,4.834,0,0,1-3599.273,730.432Z" transform="translate(3911.379 -276.503)"/><path class="f" d="M-3599.273,730.432a4.835,4.835,0,0,1-3.438-1.432,4.834,4.834,0,0,1-1.432-3.438.858.858,0,0,1,.858-.858.858.858,0,0,1,.858.858,3.13,3.13,0,0,0,.929,2.225,3.13,3.13,0,0,0,2.225.929,3.13,3.13,0,0,0,2.225-.929,3.13,3.13,0,0,0,.929-2.225,4.834,4.834,0,0,1,1.432-3.438,4.834,4.834,0,0,1,3.438-1.432,4.834,4.834,0,0,1,3.438,1.432,4.834,4.834,0,0,1,1.432,3.438.858.858,0,0,1-.858.858.858.858,0,0,1-.858-.858,3.13,3.13,0,0,0-.929-2.225,3.13,3.13,0,0,0-2.225-.929,3.13,3.13,0,0,0-2.225.929,3.129,3.129,0,0,0-.929,2.225,4.834,4.834,0,0,1-1.432,3.438A4.834,4.834,0,0,1-3599.273,730.432Z" transform="translate(3927.379 -276.503)"/><path class="f" d="M-3599.273,730.432a4.835,4.835,0,0,1-3.438-1.432,4.834,4.834,0,0,1-1.432-3.438.858.858,0,0,1,.858-.858.858.858,0,0,1,.858.858,3.13,3.13,0,0,0,.929,2.225,3.13,3.13,0,0,0,2.225.929,3.13,3.13,0,0,0,2.225-.929,3.13,3.13,0,0,0,.929-2.225,4.834,4.834,0,0,1,1.432-3.438,4.834,4.834,0,0,1,3.438-1.432,4.834,4.834,0,0,1,3.438,1.432,4.834,4.834,0,0,1,1.432,3.438.858.858,0,0,1-.858.858.858.858,0,0,1-.858-.858,3.13,3.13,0,0,0-.929-2.225,3.13,3.13,0,0,0-2.225-.929,3.13,3.13,0,0,0-2.225.929,3.129,3.129,0,0,0-.929,2.225,4.834,4.834,0,0,1-1.432,3.438A4.834,4.834,0,0,1-3599.273,730.432Z" transform="translate(3943.379 -276.503)"/></g><g transform="translate(657 9127)"><path class="f" d="M-3599.273,730.432a4.835,4.835,0,0,1-3.438-1.432,4.834,4.834,0,0,1-1.432-3.438.858.858,0,0,1,.858-.858.858.858,0,0,1,.858.858,3.13,3.13,0,0,0,.929,2.225,3.13,3.13,0,0,0,2.225.929,3.13,3.13,0,0,0,2.225-.929,3.13,3.13,0,0,0,.929-2.225,4.834,4.834,0,0,1,1.432-3.438,4.834,4.834,0,0,1,3.438-1.432,4.834,4.834,0,0,1,3.438,1.432,4.834,4.834,0,0,1,1.432,3.438.858.858,0,0,1-.858.858.858.858,0,0,1-.858-.858,3.13,3.13,0,0,0-.929-2.225,3.13,3.13,0,0,0-2.225-.929,3.13,3.13,0,0,0-2.225.929,3.129,3.129,0,0,0-.929,2.225,4.834,4.834,0,0,1-1.432,3.438A4.834,4.834,0,0,1-3599.273,730.432Z" transform="translate(3778.379 -516.503)"/><path class="f" d="M-3599.273,730.432a4.835,4.835,0,0,1-3.438-1.432,4.834,4.834,0,0,1-1.432-3.438.858.858,0,0,1,.858-.858.858.858,0,0,1,.858.858,3.13,3.13,0,0,0,.929,2.225,3.13,3.13,0,0,0,2.225.929,3.13,3.13,0,0,0,2.225-.929,3.13,3.13,0,0,0,.929-2.225,4.834,4.834,0,0,1,1.432-3.438,4.834,4.834,0,0,1,3.438-1.432,4.834,4.834,0,0,1,3.438,1.432,4.834,4.834,0,0,1,1.432,3.438.858.858,0,0,1-.858.858.858.858,0,0,1-.858-.858,3.13,3.13,0,0,0-.929-2.225,3.13,3.13,0,0,0-2.225-.929,3.13,3.13,0,0,0-2.225.929,3.129,3.129,0,0,0-.929,2.225,4.834,4.834,0,0,1-1.432,3.438A4.834,4.834,0,0,1-3599.273,730.432Z" transform="translate(3794.379 -516.503)"/><path class="f" d="M-3599.273,730.432a4.835,4.835,0,0,1-3.438-1.432,4.834,4.834,0,0,1-1.432-3.438.858.858,0,0,1,.858-.858.858.858,0,0,1,.858.858,3.13,3.13,0,0,0,.929,2.225,3.13,3.13,0,0,0,2.225.929,3.13,3.13,0,0,0,2.225-.929,3.13,3.13,0,0,0,.929-2.225,4.834,4.834,0,0,1,1.432-3.438,4.834,4.834,0,0,1,3.438-1.432,4.834,4.834,0,0,1,3.438,1.432,4.834,4.834,0,0,1,1.432,3.438.858.858,0,0,1-.858.858.858.858,0,0,1-.858-.858,3.13,3.13,0,0,0-.929-2.225,3.13,3.13,0,0,0-2.225-.929,3.13,3.13,0,0,0-2.225.929,3.129,3.129,0,0,0-.929,2.225,4.834,4.834,0,0,1-1.432,3.438A4.834,4.834,0,0,1-3599.273,730.432Z" transform="translate(3810.379 -516.503)"/><path class="f" d="M-3599.273,730.432a4.835,4.835,0,0,1-3.438-1.432,4.834,4.834,0,0,1-1.432-3.438.858.858,0,0,1,.858-.858.858.858,0,0,1,.858.858,3.13,3.13,0,0,0,.929,2.225,3.13,3.13,0,0,0,2.225.929,3.13,3.13,0,0,0,2.225-.929,3.13,3.13,0,0,0,.929-2.225,4.834,4.834,0,0,1,1.432-3.438,4.834,4.834,0,0,1,3.438-1.432,4.834,4.834,0,0,1,3.438,1.432,4.834,4.834,0,0,1,1.432,3.438.858.858,0,0,1-.858.858.858.858,0,0,1-.858-.858,3.13,3.13,0,0,0-.929-2.225,3.13,3.13,0,0,0-2.225-.929,3.13,3.13,0,0,0-2.225.929,3.129,3.129,0,0,0-.929,2.225,4.834,4.834,0,0,1-1.432,3.438A4.834,4.834,0,0,1-3599.273,730.432Z" transform="translate(3826.379 -516.503)"/><path class="f" d="M-3599.273,730.432a4.835,4.835,0,0,1-3.438-1.432,4.834,4.834,0,0,1-1.432-3.438.858.858,0,0,1,.858-.858.858.858,0,0,1,.858.858,3.13,3.13,0,0,0,.929,2.225,3.13,3.13,0,0,0,2.225.929,3.13,3.13,0,0,0,2.225-.929,3.13,3.13,0,0,0,.929-2.225,4.834,4.834,0,0,1,1.432-3.438,4.834,4.834,0,0,1,3.438-1.432,4.834,4.834,0,0,1,3.438,1.432,4.834,4.834,0,0,1,1.432,3.438.858.858,0,0,1-.858.858.858.858,0,0,1-.858-.858,3.13,3.13,0,0,0-.929-2.225,3.13,3.13,0,0,0-2.225-.929,3.13,3.13,0,0,0-2.225.929,3.129,3.129,0,0,0-.929,2.225,4.834,4.834,0,0,1-1.432,3.438A4.834,4.834,0,0,1-3599.273,730.432Z" transform="translate(3842.379 -516.503)"/><path class="f" d="M-3599.273,730.432a4.835,4.835,0,0,1-3.438-1.432,4.834,4.834,0,0,1-1.432-3.438.858.858,0,0,1,.858-.858.858.858,0,0,1,.858.858,3.13,3.13,0,0,0,.929,2.225,3.13,3.13,0,0,0,2.225.929,3.13,3.13,0,0,0,2.225-.929,3.13,3.13,0,0,0,.929-2.225,4.834,4.834,0,0,1,1.432-3.438,4.834,4.834,0,0,1,3.438-1.432,4.834,4.834,0,0,1,3.438,1.432,4.834,4.834,0,0,1,1.432,3.438.858.858,0,0,1-.858.858.858.858,0,0,1-.858-.858,3.13,3.13,0,0,0-.929-2.225,3.13,3.13,0,0,0-2.225-.929,3.13,3.13,0,0,0-2.225.929,3.129,3.129,0,0,0-.929,2.225,4.834,4.834,0,0,1-1.432,3.438A4.834,4.834,0,0,1-3599.273,730.432Z" transform="translate(3858.379 -516.503)"/><path class="f" d="M-3599.273,730.432a4.835,4.835,0,0,1-3.438-1.432,4.834,4.834,0,0,1-1.432-3.438.858.858,0,0,1,.858-.858.858.858,0,0,1,.858.858,3.13,3.13,0,0,0,.929,2.225,3.13,3.13,0,0,0,2.225.929,3.13,3.13,0,0,0,2.225-.929,3.13,3.13,0,0,0,.929-2.225,4.834,4.834,0,0,1,1.432-3.438,4.834,4.834,0,0,1,3.438-1.432,4.834,4.834,0,0,1,3.438,1.432,4.834,4.834,0,0,1,1.432,3.438.858.858,0,0,1-.858.858.858.858,0,0,1-.858-.858,3.13,3.13,0,0,0-.929-2.225,3.13,3.13,0,0,0-2.225-.929,3.13,3.13,0,0,0-2.225.929,3.129,3.129,0,0,0-.929,2.225,4.834,4.834,0,0,1-1.432,3.438A4.834,4.834,0,0,1-3599.273,730.432Z" transform="translate(3874.379 -516.503)"/><path class="f" d="M-3599.273,730.432a4.835,4.835,0,0,1-3.438-1.432,4.834,4.834,0,0,1-1.432-3.438.858.858,0,0,1,.858-.858.858.858,0,0,1,.858.858,3.13,3.13,0,0,0,.929,2.225,3.13,3.13,0,0,0,2.225.929,3.13,3.13,0,0,0,2.225-.929,3.13,3.13,0,0,0,.929-2.225,4.834,4.834,0,0,1,1.432-3.438,4.834,4.834,0,0,1,3.438-1.432,4.834,4.834,0,0,1,3.438,1.432,4.834,4.834,0,0,1,1.432,3.438.858.858,0,0,1-.858.858.858.858,0,0,1-.858-.858,3.13,3.13,0,0,0-.929-2.225,3.13,3.13,0,0,0-2.225-.929,3.13,3.13,0,0,0-2.225.929,3.129,3.129,0,0,0-.929,2.225,4.834,4.834,0,0,1-1.432,3.438A4.834,4.834,0,0,1-3599.273,730.432Z" transform="translate(3890.379 -516.503)"/><path class="f" d="M-3599.273,730.432a4.835,4.835,0,0,1-3.438-1.432,4.834,4.834,0,0,1-1.432-3.438.858.858,0,0,1,.858-.858.858.858,0,0,1,.858.858,3.13,3.13,0,0,0,.929,2.225,3.13,3.13,0,0,0,2.225.929,3.13,3.13,0,0,0,2.225-.929,3.13,3.13,0,0,0,.929-2.225,4.834,4.834,0,0,1,1.432-3.438,4.834,4.834,0,0,1,3.438-1.432,4.834,4.834,0,0,1,3.438,1.432,4.834,4.834,0,0,1,1.432,3.438.858.858,0,0,1-.858.858.858.858,0,0,1-.858-.858,3.13,3.13,0,0,0-.929-2.225,3.13,3.13,0,0,0-2.225-.929,3.13,3.13,0,0,0-2.225.929,3.129,3.129,0,0,0-.929,2.225,4.834,4.834,0,0,1-1.432,3.438A4.834,4.834,0,0,1-3599.273,730.432Z" transform="translate(3906.379 -516.503)"/><path class="f" d="M-3599.273,730.432a4.835,4.835,0,0,1-3.438-1.432,4.834,4.834,0,0,1-1.432-3.438.858.858,0,0,1,.858-.858.858.858,0,0,1,.858.858,3.13,3.13,0,0,0,.929,2.225,3.13,3.13,0,0,0,2.225.929,3.13,3.13,0,0,0,2.225-.929,3.13,3.13,0,0,0,.929-2.225,4.834,4.834,0,0,1,1.432-3.438,4.834,4.834,0,0,1,3.438-1.432,4.834,4.834,0,0,1,3.438,1.432,4.834,4.834,0,0,1,1.432,3.438.858.858,0,0,1-.858.858.858.858,0,0,1-.858-.858,3.13,3.13,0,0,0-.929-2.225,3.13,3.13,0,0,0-2.225-.929,3.13,3.13,0,0,0-2.225.929,3.129,3.129,0,0,0-.929,2.225,4.834,4.834,0,0,1-1.432,3.438A4.834,4.834,0,0,1-3599.273,730.432Z" transform="translate(3922.379 -516.503)"/><path class="f" d="M-3599.273,730.432a4.835,4.835,0,0,1-3.438-1.432,4.834,4.834,0,0,1-1.432-3.438.858.858,0,0,1,.858-.858.858.858,0,0,1,.858.858,3.13,3.13,0,0,0,.929,2.225,3.13,3.13,0,0,0,2.225.929,3.13,3.13,0,0,0,2.225-.929,3.13,3.13,0,0,0,.929-2.225,4.834,4.834,0,0,1,1.432-3.438,4.834,4.834,0,0,1,3.438-1.432,4.834,4.834,0,0,1,3.438,1.432,4.834,4.834,0,0,1,1.432,3.438.858.858,0,0,1-.858.858.858.858,0,0,1-.858-.858,3.13,3.13,0,0,0-.929-2.225,3.13,3.13,0,0,0-2.225-.929,3.13,3.13,0,0,0-2.225.929,3.129,3.129,0,0,0-.929,2.225,4.834,4.834,0,0,1-1.432,3.438A4.834,4.834,0,0,1-3599.273,730.432Z" transform="translate(3938.379 -516.503)"/></g><g transform="translate(518 9102)"><path class="f" d="M-3599.273,730.432a4.835,4.835,0,0,1-3.438-1.432,4.834,4.834,0,0,1-1.432-3.438.858.858,0,0,1,.858-.858.858.858,0,0,1,.858.858,3.13,3.13,0,0,0,.929,2.225,3.13,3.13,0,0,0,2.225.929,3.13,3.13,0,0,0,2.225-.929,3.13,3.13,0,0,0,.929-2.225,4.834,4.834,0,0,1,1.432-3.438,4.834,4.834,0,0,1,3.438-1.432,4.834,4.834,0,0,1,3.438,1.432,4.834,4.834,0,0,1,1.432,3.438.858.858,0,0,1-.858.858.858.858,0,0,1-.858-.858,3.13,3.13,0,0,0-.929-2.225,3.13,3.13,0,0,0-2.225-.929,3.13,3.13,0,0,0-2.225.929,3.129,3.129,0,0,0-.929,2.225,4.834,4.834,0,0,1-1.432,3.438A4.834,4.834,0,0,1-3599.273,730.432Z" transform="translate(4421.379 -480.503)"/><path class="f" d="M-3599.273,730.432a4.835,4.835,0,0,1-3.438-1.432,4.834,4.834,0,0,1-1.432-3.438.858.858,0,0,1,.858-.858.858.858,0,0,1,.858.858,3.13,3.13,0,0,0,.929,2.225,3.13,3.13,0,0,0,2.225.929,3.13,3.13,0,0,0,2.225-.929,3.13,3.13,0,0,0,.929-2.225,4.834,4.834,0,0,1,1.432-3.438,4.834,4.834,0,0,1,3.438-1.432,4.834,4.834,0,0,1,3.438,1.432,4.834,4.834,0,0,1,1.432,3.438.858.858,0,0,1-.858.858.858.858,0,0,1-.858-.858,3.13,3.13,0,0,0-.929-2.225,3.13,3.13,0,0,0-2.225-.929,3.13,3.13,0,0,0-2.225.929,3.129,3.129,0,0,0-.929,2.225,4.834,4.834,0,0,1-1.432,3.438A4.834,4.834,0,0,1-3599.273,730.432Z" transform="translate(4437.379 -480.503)"/><path class="f" d="M-3599.273,730.432a4.835,4.835,0,0,1-3.438-1.432,4.834,4.834,0,0,1-1.432-3.438.858.858,0,0,1,.858-.858.858.858,0,0,1,.858.858,3.13,3.13,0,0,0,.929,2.225,3.13,3.13,0,0,0,2.225.929,3.13,3.13,0,0,0,2.225-.929,3.13,3.13,0,0,0,.929-2.225,4.834,4.834,0,0,1,1.432-3.438,4.834,4.834,0,0,1,3.438-1.432,4.834,4.834,0,0,1,3.438,1.432,4.834,4.834,0,0,1,1.432,3.438.858.858,0,0,1-.858.858.858.858,0,0,1-.858-.858,3.13,3.13,0,0,0-.929-2.225,3.13,3.13,0,0,0-2.225-.929,3.13,3.13,0,0,0-2.225.929,3.129,3.129,0,0,0-.929,2.225,4.834,4.834,0,0,1-1.432,3.438A4.834,4.834,0,0,1-3599.273,730.432Z" transform="translate(4453.379 -480.503)"/><path class="f" d="M-3599.273,730.432a4.835,4.835,0,0,1-3.438-1.432,4.834,4.834,0,0,1-1.432-3.438.858.858,0,0,1,.858-.858.858.858,0,0,1,.858.858,3.13,3.13,0,0,0,.929,2.225,3.13,3.13,0,0,0,2.225.929,3.13,3.13,0,0,0,2.225-.929,3.13,3.13,0,0,0,.929-2.225,4.834,4.834,0,0,1,1.432-3.438,4.834,4.834,0,0,1,3.438-1.432,4.834,4.834,0,0,1,3.438,1.432,4.834,4.834,0,0,1,1.432,3.438.858.858,0,0,1-.858.858.858.858,0,0,1-.858-.858,3.13,3.13,0,0,0-.929-2.225,3.13,3.13,0,0,0-2.225-.929,3.13,3.13,0,0,0-2.225.929,3.129,3.129,0,0,0-.929,2.225,4.834,4.834,0,0,1-1.432,3.438A4.834,4.834,0,0,1-3599.273,730.432Z" transform="translate(4469.379 -480.503)"/><path class="f" d="M-3599.273,730.432a4.835,4.835,0,0,1-3.438-1.432,4.834,4.834,0,0,1-1.432-3.438.858.858,0,0,1,.858-.858.858.858,0,0,1,.858.858,3.13,3.13,0,0,0,.929,2.225,3.13,3.13,0,0,0,2.225.929,3.13,3.13,0,0,0,2.225-.929,3.13,3.13,0,0,0,.929-2.225,4.834,4.834,0,0,1,1.432-3.438,4.834,4.834,0,0,1,3.438-1.432,4.834,4.834,0,0,1,3.438,1.432,4.834,4.834,0,0,1,1.432,3.438.858.858,0,0,1-.858.858.858.858,0,0,1-.858-.858,3.13,3.13,0,0,0-.929-2.225,3.13,3.13,0,0,0-2.225-.929,3.13,3.13,0,0,0-2.225.929,3.129,3.129,0,0,0-.929,2.225,4.834,4.834,0,0,1-1.432,3.438A4.834,4.834,0,0,1-3599.273,730.432Z" transform="translate(4485.379 -480.503)"/></g><path class="f" d="M-3346.49,295.332a.731.731,0,0,1,.73.73v6.044a.731.731,0,0,1-.73.73h-6.044a.731.731,0,0,1-.73-.73v-6.044a.731.731,0,0,1,.73-.73h6.044m0-2.248h-6.044a2.981,2.981,0,0,0-2.978,2.978v6.044a2.981,2.981,0,0,0,2.978,2.978h6.044a2.981,2.981,0,0,0,2.978-2.978v-6.044a2.981,2.981,0,0,0-2.978-2.978Z" transform="translate(4194.512 8976.916)"/><path class="f" d="M-3346.49,295.332a.731.731,0,0,1,.73.73v6.044a.731.731,0,0,1-.73.73h-6.044a.731.731,0,0,1-.73-.73v-6.044a.731.731,0,0,1,.73-.73h6.044m0-2.248h-6.044a2.981,2.981,0,0,0-2.978,2.978v6.044a2.981,2.981,0,0,0,2.978,2.978h6.044a2.981,2.981,0,0,0,2.978-2.978v-6.044a2.981,2.981,0,0,0-2.978-2.978Z" transform="translate(4719.512 8660.916)"/><path class="f" d="M-3346.49,295.332a.731.731,0,0,1,.73.73v6.044a.731.731,0,0,1-.73.73h-6.044a.731.731,0,0,1-.73-.73v-6.044a.731.731,0,0,1,.73-.73h6.044m0-2.248h-6.044a2.981,2.981,0,0,0-2.978,2.978v6.044a2.981,2.981,0,0,0,2.978,2.978h6.044a2.981,2.981,0,0,0,2.978-2.978v-6.044a2.981,2.981,0,0,0-2.978-2.978Z" transform="translate(3994.512 8659.916)"/><path class="f" d="M-4576.361,478.909a5.863,5.863,0,0,1,5.862,5.863v48.5a5.863,5.863,0,0,1-5.862,5.863h-48.5a5.863,5.863,0,0,1-5.863-5.863v-48.5a5.863,5.863,0,0,1,5.863-5.863h48.5m0-2.255h-48.5a8.126,8.126,0,0,0-8.118,8.118v48.5a8.126,8.126,0,0,0,8.118,8.118h48.5a8.127,8.127,0,0,0,8.118-8.118v-48.5a8.127,8.127,0,0,0-8.118-8.118Z" transform="translate(5877.276 8472.638)"/><rect class="f" width="20" height="20" rx="2" transform="translate(1077 9272)"/><path class="f" d="M-4550.18,479.952a8.574,8.574,0,0,1,8.573,8.574v70.933a8.574,8.574,0,0,1-8.573,8.573h-70.933a8.573,8.573,0,0,1-8.574-8.573V488.525a8.573,8.573,0,0,1,8.574-8.574h70.933m0-3.3h-70.933a11.884,11.884,0,0,0-11.871,11.871v70.933a11.884,11.884,0,0,0,11.871,11.871h70.933a11.885,11.885,0,0,0,11.871-11.871V488.525a11.885,11.885,0,0,0-11.871-11.871Z" transform="translate(5575.308 8366.67)"/><rect class="g" width="118" height="22" rx="11" transform="translate(718 9323) rotate(90)"/><path class="g" d="M-983.867,477.078a39.922,39.922,0,0,1-28.392-11.825,39.921,39.921,0,0,1-11.825-28.391,7.085,7.085,0,0,1,7.085-7.085,7.085,7.085,0,0,1,7.085,7.085,25.845,25.845,0,0,0,7.675,18.372,25.845,25.845,0,0,0,18.372,7.675,25.845,25.845,0,0,0,18.372-7.675,25.845,25.845,0,0,0,7.675-18.372,7.085,7.085,0,0,1,7.085-7.085,7.085,7.085,0,0,1,7.085,7.085,39.921,39.921,0,0,1-11.825,28.391A39.922,39.922,0,0,1-983.867,477.078Z" transform="translate(2444.295 8808.267)"/><g transform="translate(436 8781)"><path class="g" d="M-3599.273,730.432a4.835,4.835,0,0,1-3.438-1.432,4.834,4.834,0,0,1-1.432-3.438.858.858,0,0,1,.858-.858.858.858,0,0,1,.858.858,3.13,3.13,0,0,0,.929,2.225,3.13,3.13,0,0,0,2.225.929,3.13,3.13,0,0,0,2.225-.929,3.13,3.13,0,0,0,.929-2.225,4.834,4.834,0,0,1,1.432-3.438,4.834,4.834,0,0,1,3.438-1.432,4.834,4.834,0,0,1,3.438,1.432,4.834,4.834,0,0,1,1.432,3.438.858.858,0,0,1-.858.858.858.858,0,0,1-.858-.858,3.13,3.13,0,0,0-.929-2.225,3.13,3.13,0,0,0-2.225-.929,3.13,3.13,0,0,0-2.225.929,3.129,3.129,0,0,0-.929,2.225,4.834,4.834,0,0,1-1.432,3.438A4.834,4.834,0,0,1-3599.273,730.432Z" transform="translate(3911.379 -276.503)"/><path class="g" d="M-3599.273,730.432a4.835,4.835,0,0,1-3.438-1.432,4.834,4.834,0,0,1-1.432-3.438.858.858,0,0,1,.858-.858.858.858,0,0,1,.858.858,3.13,3.13,0,0,0,.929,2.225,3.13,3.13,0,0,0,2.225.929,3.13,3.13,0,0,0,2.225-.929,3.13,3.13,0,0,0,.929-2.225,4.834,4.834,0,0,1,1.432-3.438,4.834,4.834,0,0,1,3.438-1.432,4.834,4.834,0,0,1,3.438,1.432,4.834,4.834,0,0,1,1.432,3.438.858.858,0,0,1-.858.858.858.858,0,0,1-.858-.858,3.13,3.13,0,0,0-.929-2.225,3.13,3.13,0,0,0-2.225-.929,3.13,3.13,0,0,0-2.225.929,3.129,3.129,0,0,0-.929,2.225,4.834,4.834,0,0,1-1.432,3.438A4.834,4.834,0,0,1-3599.273,730.432Z" transform="translate(3927.379 -276.503)"/><path class="g" d="M-3599.273,730.432a4.835,4.835,0,0,1-3.438-1.432,4.834,4.834,0,0,1-1.432-3.438.858.858,0,0,1,.858-.858.858.858,0,0,1,.858.858,3.13,3.13,0,0,0,.929,2.225,3.13,3.13,0,0,0,2.225.929,3.13,3.13,0,0,0,2.225-.929,3.13,3.13,0,0,0,.929-2.225,4.834,4.834,0,0,1,1.432-3.438,4.834,4.834,0,0,1,3.438-1.432,4.834,4.834,0,0,1,3.438,1.432,4.834,4.834,0,0,1,1.432,3.438.858.858,0,0,1-.858.858.858.858,0,0,1-.858-.858,3.13,3.13,0,0,0-.929-2.225,3.13,3.13,0,0,0-2.225-.929,3.13,3.13,0,0,0-2.225.929,3.129,3.129,0,0,0-.929,2.225,4.834,4.834,0,0,1-1.432,3.438A4.834,4.834,0,0,1-3599.273,730.432Z" transform="translate(3943.379 -276.503)"/></g><path class="g" d="M62.67,7.5a5,5,0,0,1,8.659,0l58.338,101a5,5,0,0,1-4.33,7.5H8.662a5,5,0,0,1-4.33-7.5Z" transform="translate(450 8814)"/><path class="g" d="M20.653,7.651a5,5,0,0,1,8.695,0L45.756,36.53A5,5,0,0,1,41.408,44H8.592a5,5,0,0,1-4.347-7.47Z" transform="translate(1008 9104) rotate(180)"/><path class="g" d="M-2562.893,314.429a1.6,1.6,0,0,1,1.4.808l10.29,17.823a1.616,1.616,0,0,1-1.4,2.424h-20.58a1.616,1.616,0,0,1-1.4-2.424l10.29-17.823a1.6,1.6,0,0,1,1.4-.808m0-4.848a6.487,6.487,0,0,0-3.137.81,6.463,6.463,0,0,0-2.46,2.422l-10.29,17.823a6.462,6.462,0,0,0-.867,3.342,6.486,6.486,0,0,0,.867,3.122,6.487,6.487,0,0,0,2.27,2.312,6.461,6.461,0,0,0,3.328.92h20.58a6.46,6.46,0,0,0,3.328-.92A6.486,6.486,0,0,0-2547,337.1a6.488,6.488,0,0,0,.867-3.122,6.459,6.459,0,0,0-.867-3.342l-10.29-17.823a6.461,6.461,0,0,0-2.46-2.422,6.487,6.487,0,0,0-3.137-.81Z" transform="translate(2800.288 8607.074)"/><path class="g" d="M-2553.492,350.014a2.5,2.5,0,0,0,2.184-1.261l16.063-27.821a2.522,2.522,0,0,0-2.184-3.783h-32.125a2.522,2.522,0,0,0-2.184,3.783l16.063,27.821a2.5,2.5,0,0,0,2.184,1.261m0,7.567a10.126,10.126,0,0,1-4.9-1.264,10.086,10.086,0,0,1-3.841-3.781l-16.062-27.821a10.088,10.088,0,0,1-1.354-5.216,10.125,10.125,0,0,1,1.354-4.873,10.125,10.125,0,0,1,3.543-3.609,10.085,10.085,0,0,1,5.195-1.436h32.125a10.084,10.084,0,0,1,5.194,1.436,10.126,10.126,0,0,1,3.543,3.609,10.127,10.127,0,0,1,1.354,4.873,10.083,10.083,0,0,1-1.354,5.216l-16.062,27.821a10.084,10.084,0,0,1-3.841,3.781,10.125,10.125,0,0,1-4.9,1.264Z" transform="translate(3299.226 8595.419)"/><path class="g" d="M-3173.264,338.489a14.757,14.757,0,0,1,14.757,14.757V475.333a14.757,14.757,0,0,1-14.757,14.757H-3295.35a14.757,14.757,0,0,1-14.757-14.757V353.246a14.757,14.757,0,0,1,14.757-14.757h122.086m0-45.4H-3295.35a60.23,60.23,0,0,0-60.162,60.162V475.333a60.23,60.23,0,0,0,60.162,60.162h122.086a60.23,60.23,0,0,0,60.162-60.162V353.246a60.23,60.23,0,0,0-60.162-60.162Z" transform="translate(4504.174 8770.578)"/><path class="g" d="M-3346.49,295.332a.731.731,0,0,1,.73.73v6.044a.731.731,0,0,1-.73.73h-6.044a.731.731,0,0,1-.73-.73v-6.044a.731.731,0,0,1,.73-.73h6.044m0-2.248h-6.044a2.981,2.981,0,0,0-2.978,2.978v6.044a2.981,2.981,0,0,0,2.978,2.978h6.044a2.981,2.981,0,0,0,2.978-2.978v-6.044a2.981,2.981,0,0,0-2.978-2.978Z" transform="translate(4454.512 8804.916)"/><path class="g" d="M-3948.7,439.219a6.041,6.041,0,0,1,6.041,6.041v49.978a6.041,6.041,0,0,1-6.041,6.041h-49.978a6.041,6.041,0,0,1-6.041-6.041V445.259a6.041,6.041,0,0,1,6.041-6.041h49.978m0-9.294h-49.978a15.352,15.352,0,0,0-15.334,15.334v49.978a15.352,15.352,0,0,0,15.334,15.334h49.978a15.352,15.352,0,0,0,15.334-15.334V445.259a15.352,15.352,0,0,0-15.334-15.334Z" transform="translate(5434.008 8622.075)"/><g transform="translate(-484 8686)"><path class="g" d="M-3599.273,730.432a4.835,4.835,0,0,1-3.438-1.432,4.834,4.834,0,0,1-1.432-3.438.858.858,0,0,1,.858-.858.858.858,0,0,1,.858.858,3.13,3.13,0,0,0,.929,2.225,3.13,3.13,0,0,0,2.225.929,3.13,3.13,0,0,0,2.225-.929,3.13,3.13,0,0,0,.929-2.225,4.834,4.834,0,0,1,1.432-3.438,4.834,4.834,0,0,1,3.438-1.432,4.834,4.834,0,0,1,3.438,1.432,4.834,4.834,0,0,1,1.432,3.438.858.858,0,0,1-.858.858.858.858,0,0,1-.858-.858,3.13,3.13,0,0,0-.929-2.225,3.13,3.13,0,0,0-2.225-.929,3.13,3.13,0,0,0-2.225.929,3.129,3.129,0,0,0-.929,2.225,4.834,4.834,0,0,1-1.432,3.438A4.834,4.834,0,0,1-3599.273,730.432Z" transform="translate(4216.379 -312.503)"/><path class="g" d="M-3599.273,730.432a4.835,4.835,0,0,1-3.438-1.432,4.834,4.834,0,0,1-1.432-3.438.858.858,0,0,1,.858-.858.858.858,0,0,1,.858.858,3.13,3.13,0,0,0,.929,2.225,3.13,3.13,0,0,0,2.225.929,3.13,3.13,0,0,0,2.225-.929,3.13,3.13,0,0,0,.929-2.225,4.834,4.834,0,0,1,1.432-3.438,4.834,4.834,0,0,1,3.438-1.432,4.834,4.834,0,0,1,3.438,1.432,4.834,4.834,0,0,1,1.432,3.438.858.858,0,0,1-.858.858.858.858,0,0,1-.858-.858,3.13,3.13,0,0,0-.929-2.225,3.13,3.13,0,0,0-2.225-.929,3.13,3.13,0,0,0-2.225.929,3.129,3.129,0,0,0-.929,2.225,4.834,4.834,0,0,1-1.432,3.438A4.834,4.834,0,0,1-3599.273,730.432Z" transform="translate(4232.379 -312.503)"/><path class="g" d="M-3599.273,730.432a4.835,4.835,0,0,1-3.438-1.432,4.834,4.834,0,0,1-1.432-3.438.858.858,0,0,1,.858-.858.858.858,0,0,1,.858.858,3.13,3.13,0,0,0,.929,2.225,3.13,3.13,0,0,0,2.225.929,3.13,3.13,0,0,0,2.225-.929,3.13,3.13,0,0,0,.929-2.225,4.834,4.834,0,0,1,1.432-3.438,4.834,4.834,0,0,1,3.438-1.432,4.834,4.834,0,0,1,3.438,1.432,4.834,4.834,0,0,1,1.432,3.438.858.858,0,0,1-.858.858.858.858,0,0,1-.858-.858,3.13,3.13,0,0,0-.929-2.225,3.13,3.13,0,0,0-2.225-.929,3.13,3.13,0,0,0-2.225.929,3.129,3.129,0,0,0-.929,2.225,4.834,4.834,0,0,1-1.432,3.438A4.834,4.834,0,0,1-3599.273,730.432Z" transform="translate(4248.379 -312.503)"/><path class="g" d="M-3599.273,730.432a4.835,4.835,0,0,1-3.438-1.432,4.834,4.834,0,0,1-1.432-3.438.858.858,0,0,1,.858-.858.858.858,0,0,1,.858.858,3.13,3.13,0,0,0,.929,2.225,3.13,3.13,0,0,0,2.225.929,3.13,3.13,0,0,0,2.225-.929,3.13,3.13,0,0,0,.929-2.225,4.834,4.834,0,0,1,1.432-3.438,4.834,4.834,0,0,1,3.438-1.432,4.834,4.834,0,0,1,3.438,1.432,4.834,4.834,0,0,1,1.432,3.438.858.858,0,0,1-.858.858.858.858,0,0,1-.858-.858,3.13,3.13,0,0,0-.929-2.225,3.13,3.13,0,0,0-2.225-.929,3.13,3.13,0,0,0-2.225.929,3.129,3.129,0,0,0-.929,2.225,4.834,4.834,0,0,1-1.432,3.438A4.834,4.834,0,0,1-3599.273,730.432Z" transform="translate(4264.379 -312.503)"/><path class="g" d="M-3599.273,730.432a4.835,4.835,0,0,1-3.438-1.432,4.834,4.834,0,0,1-1.432-3.438.858.858,0,0,1,.858-.858.858.858,0,0,1,.858.858,3.13,3.13,0,0,0,.929,2.225,3.13,3.13,0,0,0,2.225.929,3.13,3.13,0,0,0,2.225-.929,3.13,3.13,0,0,0,.929-2.225,4.834,4.834,0,0,1,1.432-3.438,4.834,4.834,0,0,1,3.438-1.432,4.834,4.834,0,0,1,3.438,1.432,4.834,4.834,0,0,1,1.432,3.438.858.858,0,0,1-.858.858.858.858,0,0,1-.858-.858,3.13,3.13,0,0,0-.929-2.225,3.13,3.13,0,0,0-2.225-.929,3.13,3.13,0,0,0-2.225.929,3.129,3.129,0,0,0-.929,2.225,4.834,4.834,0,0,1-1.432,3.438A4.834,4.834,0,0,1-3599.273,730.432Z" transform="translate(4280.379 -312.503)"/><path class="g" d="M-3599.273,730.432a4.835,4.835,0,0,1-3.438-1.432,4.834,4.834,0,0,1-1.432-3.438.858.858,0,0,1,.858-.858.858.858,0,0,1,.858.858,3.13,3.13,0,0,0,.929,2.225,3.13,3.13,0,0,0,2.225.929,3.13,3.13,0,0,0,2.225-.929,3.13,3.13,0,0,0,.929-2.225,4.834,4.834,0,0,1,1.432-3.438,4.834,4.834,0,0,1,3.438-1.432,4.834,4.834,0,0,1,3.438,1.432,4.834,4.834,0,0,1,1.432,3.438.858.858,0,0,1-.858.858.858.858,0,0,1-.858-.858,3.13,3.13,0,0,0-.929-2.225,3.13,3.13,0,0,0-2.225-.929,3.13,3.13,0,0,0-2.225.929,3.129,3.129,0,0,0-.929,2.225,4.834,4.834,0,0,1-1.432,3.438A4.834,4.834,0,0,1-3599.273,730.432Z" transform="translate(4296.379 -312.503)"/><path class="g" d="M-3599.273,730.432a4.835,4.835,0,0,1-3.438-1.432,4.834,4.834,0,0,1-1.432-3.438.858.858,0,0,1,.858-.858.858.858,0,0,1,.858.858,3.13,3.13,0,0,0,.929,2.225,3.13,3.13,0,0,0,2.225.929,3.13,3.13,0,0,0,2.225-.929,3.13,3.13,0,0,0,.929-2.225,4.834,4.834,0,0,1,1.432-3.438,4.834,4.834,0,0,1,3.438-1.432,4.834,4.834,0,0,1,3.438,1.432,4.834,4.834,0,0,1,1.432,3.438.858.858,0,0,1-.858.858.858.858,0,0,1-.858-.858,3.13,3.13,0,0,0-.929-2.225,3.13,3.13,0,0,0-2.225-.929,3.13,3.13,0,0,0-2.225.929,3.129,3.129,0,0,0-.929,2.225,4.834,4.834,0,0,1-1.432,3.438A4.834,4.834,0,0,1-3599.273,730.432Z" transform="translate(4312.379 -312.503)"/><path class="g" d="M-3599.273,730.432a4.835,4.835,0,0,1-3.438-1.432,4.834,4.834,0,0,1-1.432-3.438.858.858,0,0,1,.858-.858.858.858,0,0,1,.858.858,3.13,3.13,0,0,0,.929,2.225,3.13,3.13,0,0,0,2.225.929,3.13,3.13,0,0,0,2.225-.929,3.13,3.13,0,0,0,.929-2.225,4.834,4.834,0,0,1,1.432-3.438,4.834,4.834,0,0,1,3.438-1.432,4.834,4.834,0,0,1,3.438,1.432,4.834,4.834,0,0,1,1.432,3.438.858.858,0,0,1-.858.858.858.858,0,0,1-.858-.858,3.13,3.13,0,0,0-.929-2.225,3.13,3.13,0,0,0-2.225-.929,3.13,3.13,0,0,0-2.225.929,3.129,3.129,0,0,0-.929,2.225,4.834,4.834,0,0,1-1.432,3.438A4.834,4.834,0,0,1-3599.273,730.432Z" transform="translate(4328.379 -312.503)"/><path class="g" d="M-3599.273,730.432a4.835,4.835,0,0,1-3.438-1.432,4.834,4.834,0,0,1-1.432-3.438.858.858,0,0,1,.858-.858.858.858,0,0,1,.858.858,3.13,3.13,0,0,0,.929,2.225,3.13,3.13,0,0,0,2.225.929,3.13,3.13,0,0,0,2.225-.929,3.13,3.13,0,0,0,.929-2.225,4.834,4.834,0,0,1,1.432-3.438,4.834,4.834,0,0,1,3.438-1.432,4.834,4.834,0,0,1,3.438,1.432,4.834,4.834,0,0,1,1.432,3.438.858.858,0,0,1-.858.858.858.858,0,0,1-.858-.858,3.13,3.13,0,0,0-.929-2.225,3.13,3.13,0,0,0-2.225-.929,3.13,3.13,0,0,0-2.225.929,3.129,3.129,0,0,0-.929,2.225,4.834,4.834,0,0,1-1.432,3.438A4.834,4.834,0,0,1-3599.273,730.432Z" transform="translate(4344.379 -312.503)"/><path class="g" d="M-3599.273,730.432a4.835,4.835,0,0,1-3.438-1.432,4.834,4.834,0,0,1-1.432-3.438.858.858,0,0,1,.858-.858.858.858,0,0,1,.858.858,3.13,3.13,0,0,0,.929,2.225,3.13,3.13,0,0,0,2.225.929,3.13,3.13,0,0,0,2.225-.929,3.13,3.13,0,0,0,.929-2.225,4.834,4.834,0,0,1,1.432-3.438,4.834,4.834,0,0,1,3.438-1.432,4.834,4.834,0,0,1,3.438,1.432,4.834,4.834,0,0,1,1.432,3.438.858.858,0,0,1-.858.858.858.858,0,0,1-.858-.858,3.13,3.13,0,0,0-.929-2.225,3.13,3.13,0,0,0-2.225-.929,3.13,3.13,0,0,0-2.225.929,3.129,3.129,0,0,0-.929,2.225,4.834,4.834,0,0,1-1.432,3.438A4.834,4.834,0,0,1-3599.273,730.432Z" transform="translate(4360.379 -312.503)"/><path class="g" d="M-3599.273,730.432a4.835,4.835,0,0,1-3.438-1.432,4.834,4.834,0,0,1-1.432-3.438.858.858,0,0,1,.858-.858.858.858,0,0,1,.858.858,3.13,3.13,0,0,0,.929,2.225,3.13,3.13,0,0,0,2.225.929,3.13,3.13,0,0,0,2.225-.929,3.13,3.13,0,0,0,.929-2.225,4.834,4.834,0,0,1,1.432-3.438,4.834,4.834,0,0,1,3.438-1.432,4.834,4.834,0,0,1,3.438,1.432,4.834,4.834,0,0,1,1.432,3.438.858.858,0,0,1-.858.858.858.858,0,0,1-.858-.858,3.13,3.13,0,0,0-.929-2.225,3.13,3.13,0,0,0-2.225-.929,3.13,3.13,0,0,0-2.225.929,3.129,3.129,0,0,0-.929,2.225,4.834,4.834,0,0,1-1.432,3.438A4.834,4.834,0,0,1-3599.273,730.432Z" transform="translate(4376.379 -312.503)"/></g><g transform="translate(191 8925)"><path class="g" d="M-3599.273,730.432a4.835,4.835,0,0,1-3.438-1.432,4.834,4.834,0,0,1-1.432-3.438.858.858,0,0,1,.858-.858.858.858,0,0,1,.858.858,3.13,3.13,0,0,0,.929,2.225,3.13,3.13,0,0,0,2.225.929,3.13,3.13,0,0,0,2.225-.929,3.13,3.13,0,0,0,.929-2.225,4.834,4.834,0,0,1,1.432-3.438,4.834,4.834,0,0,1,3.438-1.432,4.834,4.834,0,0,1,3.438,1.432,4.834,4.834,0,0,1,1.432,3.438.858.858,0,0,1-.858.858.858.858,0,0,1-.858-.858,3.13,3.13,0,0,0-.929-2.225,3.13,3.13,0,0,0-2.225-.929,3.13,3.13,0,0,0-2.225.929,3.129,3.129,0,0,0-.929,2.225,4.834,4.834,0,0,1-1.432,3.438A4.834,4.834,0,0,1-3599.273,730.432Z" transform="translate(4421.379 -480.503)"/><path class="g" d="M-3599.273,730.432a4.835,4.835,0,0,1-3.438-1.432,4.834,4.834,0,0,1-1.432-3.438.858.858,0,0,1,.858-.858.858.858,0,0,1,.858.858,3.13,3.13,0,0,0,.929,2.225,3.13,3.13,0,0,0,2.225.929,3.13,3.13,0,0,0,2.225-.929,3.13,3.13,0,0,0,.929-2.225,4.834,4.834,0,0,1,1.432-3.438,4.834,4.834,0,0,1,3.438-1.432,4.834,4.834,0,0,1,3.438,1.432,4.834,4.834,0,0,1,1.432,3.438.858.858,0,0,1-.858.858.858.858,0,0,1-.858-.858,3.13,3.13,0,0,0-.929-2.225,3.13,3.13,0,0,0-2.225-.929,3.13,3.13,0,0,0-2.225.929,3.129,3.129,0,0,0-.929,2.225,4.834,4.834,0,0,1-1.432,3.438A4.834,4.834,0,0,1-3599.273,730.432Z" transform="translate(4437.379 -480.503)"/><path class="g" d="M-3599.273,730.432a4.835,4.835,0,0,1-3.438-1.432,4.834,4.834,0,0,1-1.432-3.438.858.858,0,0,1,.858-.858.858.858,0,0,1,.858.858,3.13,3.13,0,0,0,.929,2.225,3.13,3.13,0,0,0,2.225.929,3.13,3.13,0,0,0,2.225-.929,3.13,3.13,0,0,0,.929-2.225,4.834,4.834,0,0,1,1.432-3.438,4.834,4.834,0,0,1,3.438-1.432,4.834,4.834,0,0,1,3.438,1.432,4.834,4.834,0,0,1,1.432,3.438.858.858,0,0,1-.858.858.858.858,0,0,1-.858-.858,3.13,3.13,0,0,0-.929-2.225,3.13,3.13,0,0,0-2.225-.929,3.13,3.13,0,0,0-2.225.929,3.129,3.129,0,0,0-.929,2.225,4.834,4.834,0,0,1-1.432,3.438A4.834,4.834,0,0,1-3599.273,730.432Z" transform="translate(4453.379 -480.503)"/><path class="g" d="M-3599.273,730.432a4.835,4.835,0,0,1-3.438-1.432,4.834,4.834,0,0,1-1.432-3.438.858.858,0,0,1,.858-.858.858.858,0,0,1,.858.858,3.13,3.13,0,0,0,.929,2.225,3.13,3.13,0,0,0,2.225.929,3.13,3.13,0,0,0,2.225-.929,3.13,3.13,0,0,0,.929-2.225,4.834,4.834,0,0,1,1.432-3.438,4.834,4.834,0,0,1,3.438-1.432,4.834,4.834,0,0,1,3.438,1.432,4.834,4.834,0,0,1,1.432,3.438.858.858,0,0,1-.858.858.858.858,0,0,1-.858-.858,3.13,3.13,0,0,0-.929-2.225,3.13,3.13,0,0,0-2.225-.929,3.13,3.13,0,0,0-2.225.929,3.129,3.129,0,0,0-.929,2.225,4.834,4.834,0,0,1-1.432,3.438A4.834,4.834,0,0,1-3599.273,730.432Z" transform="translate(4469.379 -480.503)"/><path class="g" d="M-3599.273,730.432a4.835,4.835,0,0,1-3.438-1.432,4.834,4.834,0,0,1-1.432-3.438.858.858,0,0,1,.858-.858.858.858,0,0,1,.858.858,3.13,3.13,0,0,0,.929,2.225,3.13,3.13,0,0,0,2.225.929,3.13,3.13,0,0,0,2.225-.929,3.13,3.13,0,0,0,.929-2.225,4.834,4.834,0,0,1,1.432-3.438,4.834,4.834,0,0,1,3.438-1.432,4.834,4.834,0,0,1,3.438,1.432,4.834,4.834,0,0,1,1.432,3.438.858.858,0,0,1-.858.858.858.858,0,0,1-.858-.858,3.13,3.13,0,0,0-.929-2.225,3.13,3.13,0,0,0-2.225-.929,3.13,3.13,0,0,0-2.225.929,3.129,3.129,0,0,0-.929,2.225,4.834,4.834,0,0,1-1.432,3.438A4.834,4.834,0,0,1-3599.273,730.432Z" transform="translate(4485.379 -480.503)"/></g><path class="g" d="M-3332.958,298.7a1.826,1.826,0,0,1,1.826,1.826v15.109a1.826,1.826,0,0,1-1.826,1.826h-15.11a1.827,1.827,0,0,1-1.826-1.826V300.529a1.827,1.827,0,0,1,1.826-1.826h15.11m0-5.619h-15.11a7.454,7.454,0,0,0-7.444,7.445v15.109a7.454,7.454,0,0,0,7.444,7.445h15.11a7.454,7.454,0,0,0,7.445-7.445V300.529a7.454,7.454,0,0,0-7.445-7.445Z" transform="translate(4502.512 9048.916)"/><rect class="g" width="102" height="102" rx="10" transform="translate(132 9225)"/><rect class="g" width="68" height="68" rx="10" transform="translate(915 9191)"/><path class="g" d="M-3207.134-783.862a4.16,4.16,0,0,0,3.636-2.1l27.608-47.819a4.2,4.2,0,0,0-3.636-6.3h-55.216a4.2,4.2,0,0,0-3.636,6.3l27.608,47.819a4.16,4.16,0,0,0,3.636,2.1m0,6.459a10.7,10.7,0,0,1-5.177-1.334,10.647,10.647,0,0,1-4.053-3.995l-27.608-47.819a10.654,10.654,0,0,1-1.433-5.508,10.711,10.711,0,0,1,1.433-5.151,10.7,10.7,0,0,1,3.745-3.816,10.646,10.646,0,0,1,5.486-1.513h55.216a10.65,10.65,0,0,1,5.486,1.513,10.71,10.71,0,0,1,3.744,3.816,10.715,10.715,0,0,1,1.432,5.15,10.655,10.655,0,0,1-1.432,5.508l-27.609,47.819a10.647,10.647,0,0,1-4.053,3.995,10.7,10.7,0,0,1-5.177,1.334Z" transform="translate(3829.406 10084.409)"/><path class="g" d="M-2982.361-1409.039a4.487,4.487,0,0,1,3.922,2.265l29.782,51.583a4.529,4.529,0,0,1-3.922,6.794h-59.563a4.529,4.529,0,0,1-3.922-6.794l29.782-51.583a4.486,4.486,0,0,1,3.922-2.265m0-1.742a6.207,6.207,0,0,0-5.431,3.136l-29.782,51.583a6.206,6.206,0,0,0,0,6.271,6.207,6.207,0,0,0,5.431,3.135h59.563a6.207,6.207,0,0,0,5.431-3.135,6.206,6.206,0,0,0,0-6.271l-29.782-51.583a6.207,6.207,0,0,0-5.431-3.136Z" transform="translate(3328.53 10616.981)"/></g></g></svg>